# Blender 4.4.1
# www.blender.org
mtllib thing.mtl
o Cube
v 1.000000 1.000000 -1.000000
v 1.000000 -1.000000 -1.000000
v 1.000000 1.000000 1.000000
v 1.000000 -1.000000 1.000000
v -1.000000 1.000000 -1.000000
v -1.000000 -1.000000 -1.000000
v -1.000000 1.000000 1.000000
v -1.000000 -1.000000 1.000000
v 0.587271 -0.587271 -2.925759
v -0.587271 -0.587271 -2.925759
v 0.587271 0.587271 -2.925759
v -0.587271 0.587271 -2.925759
v 0.492098 2.849999 0.492098
v -0.492098 2.849999 0.492098
v 0.492098 2.849999 -0.492098
v -0.492098 2.849999 -0.492098
v 0.492098 3.685756 0.492098
v -0.492098 3.685756 0.492098
v 0.492098 3.685756 -0.492098
v -0.492098 3.685756 -0.492098
v -1.766538 2.849999 0.492098
v -1.766538 2.849999 -0.492098
v -1.766538 3.685756 0.492098
v -1.766538 3.685756 -0.492098
v -2.630415 2.849999 0.492098
v -2.630415 2.849999 -0.492098
v -2.630415 3.685756 0.492098
v -2.630415 3.685756 -0.492098
v -1.766538 -0.929151 0.492098
v -1.766538 -0.929151 -0.492098
v -2.630415 -0.929151 0.492098
v -2.630415 -0.929151 -0.492098
vn -0.0000 0.2647 -0.9643
vn -0.0000 -0.0000 1.0000
vn -1.0000 -0.0000 -0.0000
vn -0.0000 -1.0000 -0.0000
vn 1.0000 -0.0000 -0.0000
vn -0.9778 -0.0000 -0.2096
vn -0.0000 -0.0000 -1.0000
vn -0.0000 -0.9778 -0.2096
vn -0.0000 0.9778 -0.2096
vn 0.9778 -0.0000 -0.2096
vn -0.0000 0.2647 0.9643
vn -0.9643 0.2647 -0.0000
vn 0.9643 0.2647 -0.0000
vn -0.0000 1.0000 -0.0000
vt 0.719623 0.704334
vt 0.529501 0.704334
vt 0.577783 0.526504
vt 0.671341 0.526504
vt 0.374513 0.447134
vt 0.374513 0.257200
vt 0.564634 0.257200
vt 0.564634 0.447134
vt 0.000430 0.447694
vt 0.190280 0.447694
vt 0.189850 0.637645
vt -0.000000 0.637645
vt 0.719623 0.184875
vt 0.909744 0.184875
vt 0.909744 0.374733
vt 0.719623 0.374733
vt 0.184562 0.447694
vt 0.184562 0.257844
vt 0.374513 0.257414
vt 0.374513 0.447264
vt 0.152352 0.822207
vt 0.040859 0.822207
vt 0.111543 0.933860
vt 0.000000 0.933859
vt 0.000000 0.822207
vt 0.111543 0.822207
vt 0.758857 0.000000
vt 0.870510 0.000000
vt 0.813097 0.564854
vt 0.813097 0.374733
vt 0.997972 0.413967
vt 0.997972 0.525620
vt 0.000000 0.406835
vt 0.000000 0.295342
vt 0.516353 0.079370
vt 0.422794 0.079370
vt 0.422794 0.000000
vt 0.516353 0.000000
vt 0.368360 0.497978
vt 0.368148 0.591452
vt 0.230755 0.079546
vt 0.324229 0.079334
vt 1.000000 0.564854
vt 1.000000 0.658413
vt 0.906571 0.658413
vt 0.906571 0.564854
vt 0.577783 0.447134
vt 0.671341 0.447134
vt 0.230755 0.000212
vt 0.324229 0.000000
vt 0.456633 0.526504
vt 0.456633 0.447134
vt 0.637502 0.079370
vt 0.637502 0.000000
vt 0.719623 0.000000
vt 0.719623 0.079370
vt 1.000000 0.779562
vt 0.906571 0.779562
vt 0.719623 0.813014
vt 0.813051 0.813014
vt 0.813051 0.934163
vt 0.719622 0.934163
vt 0.813097 0.454279
vt 0.719623 0.454067
vt 0.719623 0.374733
vt 0.813097 0.374945
vt 0.719623 0.438265
vt 0.637502 0.438265
vt 0.374513 0.526504
vt 0.374513 0.447134
vt 1.000000 0.861683
vt 0.906571 0.861683
vt 0.193664 0.822207
vt 0.193664 0.915635
vt 0.111543 0.915635
vt 0.111543 0.822207
vt 0.813097 0.565066
vt 0.906571 0.564854
vt 0.906571 0.923590
vt 0.813097 0.923801
vt 0.456633 0.885399
vt 0.374513 0.885399
vt 0.813097 0.813014
vt 0.719623 0.812802
s 0
usemtl Material
f 1/1/1 5/2/1 16/3/1 15/4/1
f 4/5/2 3/6/2 7/7/2 8/8/2
f 8/9/3 7/10/3 5/11/3 6/12/3
f 6/13/4 2/14/4 4/15/4 8/16/4
f 2/17/5 1/18/5 3/19/5 4/20/5
f 6/12/6 5/11/6 12/21/6 10/22/6
f 10/23/7 12/24/7 11/25/7 9/26/7
f 2/14/8 6/13/8 10/27/8 9/28/8
f 5/29/9 1/30/9 11/31/9 12/32/9
f 1/18/10 2/17/10 9/33/10 11/34/10
f 14/35/2 13/36/2 17/37/2 18/38/2
f 7/7/11 3/6/11 13/36/11 14/35/11
f 5/11/12 7/10/12 14/39/12 16/40/12
f 3/19/13 1/18/13 15/41/13 13/42/13
f 19/43/14 20/44/14 18/45/14 17/46/14
f 15/4/7 16/3/7 20/47/7 19/48/7
f 13/42/5 15/41/5 19/49/5 17/50/5
f 20/47/7 16/3/7 22/51/7 24/52/7
f 21/53/2 23/54/2 27/55/2 25/56/2
f 18/45/14 20/44/14 24/57/14 23/58/14
f 16/59/4 14/60/4 21/61/4 22/62/4
f 14/35/2 18/38/2 23/54/2 21/53/2
f 26/63/3 25/64/3 27/65/3 28/66/3
f 21/53/2 25/56/2 31/67/2 29/68/2
f 24/52/7 22/51/7 26/69/7 28/70/7
f 23/58/14 24/57/14 28/71/14 27/72/14
f 30/73/4 29/74/4 31/75/4 32/76/4
f 22/77/5 21/78/5 29/79/5 30/80/5
f 26/69/7 22/51/7 30/81/7 32/82/7
f 25/64/3 26/63/3 32/83/3 31/84/3
